<?xml version="1.0" standalone="no"?>
<!DOCTYPE svg PUBLIC "-//W3C//DTD SVG 20010904//EN"
 "http://www.w3.org/TR/2001/REC-SVG-20010904/DTD/svg10.dtd">
<svg version="1.0" xmlns="http://www.w3.org/2000/svg"
 width="250.000000pt" height="250.000000pt" viewBox="0 0 250.000000 250.000000"
 preserveAspectRatio="xMidYMid meet">
<metadata>
Created by potrace 1.14, written by Peter Selinger 2001-2017
</metadata>
<g transform="translate(0.000000,250.000000) scale(0.100000,-0.100000)"
fill="#000000" stroke="none">
<path d="M0 1250 l0 -1250 1250 0 1250 0 0 1250 0 1250 -1250 0 -1250 0 0
-1250z m895 970 c53 -49 58 -72 63 -262 l4 -178 245 0 c183 0 263 -4 320 -16
188 -38 295 -140 350 -329 15 -52 17 -124 21 -546 2 -321 0 -500 -7 -526 -14
-51 -55 -89 -111 -104 -87 -23 -183 9 -216 73 -20 37 -21 81 -16 564 l2 271
57 -8 c32 -4 58 -7 59 -6 1 1 21 44 43 96 31 72 38 97 29 103 -7 4 -87 47
-176 94 l-164 85 -74 -11 c-55 -8 -93 -9 -145 0 l-71 10 -170 -87 c-94 -49
-172 -93 -175 -99 -2 -6 14 -51 35 -100 42 -97 34 -91 122 -83 l35 4 0 -395
c0 -382 -1 -396 -21 -435 -31 -59 -74 -80 -161 -80 -77 0 -106 13 -147 69 -21
27 -21 36 -24 914 l-2 887 22 45 c32 64 72 82 170 78 65 -3 80 -7 103 -28z
m360 -745 c44 0 91 4 105 9 25 8 25 8 -4 -23 -28 -29 -34 -31 -101 -31 -67 0
-73 2 -101 31 -29 31 -29 31 -4 23 14 -5 61 -9 105 -9z"/>
</g>
</svg>
